<?xml version="1.0" standalone="no"?>
<svg viewBox="0 0 200 200" xmlns="http://www.w3.org/2000/svg">
  <path fill="#FF0066" d="M33.7,-59.1C45.6,-51.5,58.6,-46.4,64.8,-37C71,-27.6,70.4,-13.8,69.5,-0.5C68.6,12.7,67.3,25.4,63.6,39.3C60,53.1,54,68.1,43,75.6C32,83,16,82.9,-0.2,83.3C-16.5,83.7,-33,84.7,-46.1,78.5C-59.3,72.3,-69.2,59,-75,44.7C-80.9,30.4,-82.9,15.2,-79.5,1.9C-76.2,-11.4,-67.6,-22.7,-60,-34C-52.4,-45.3,-45.8,-56.6,-35.9,-65.4C-26.1,-74.3,-13.1,-80.7,-1.1,-78.8C10.9,-76.9,21.7,-66.7,33.7,-59.1Z" transform="translate(100 100)" />
</svg>
